Coordinates
version=1
nRows=12
nColumns=24
inDegrees=yes

Units are S.I. units (second, meters, Newtons, ...)
If the header above contains a line with 'inDegrees', this indicates whether rotational values are in degrees (yes) or radians (no).

endheader
time	pelvis_tilt	pelvis_list	pelvis_rotation	pelvis_tx	pelvis_ty	pelvis_tz	hip_flexion_r	hip_adduction_r	hip_rotation_r	knee_angle_r	ankle_angle_r	subtalar_angle_r	mtp_angle_r	hip_flexion_l	hip_adduction_l	hip_rotation_l	knee_angle_l	ankle_angle_l	subtalar_angle_l	mtp_angle_l	lumbar_extension	lumbar_bending	lumbar_rotation
      0.00000000	      4.19451493	      0.19057471	     -1.05236974	     -1.31007612	      0.73414255	      0.30665699	     31.05188850	     -1.99735213	     -5.27144932	    -76.90798864	     -6.36152903	    -13.56796212	      0.00000000	     10.12885380	      4.00985618	     -3.95524551	    -22.11738733	     10.58994413	    -11.48727867	      0.00000000	    -13.94438694	     -3.30657654	      7.43583198
      0.00666667	      4.19325480	      0.22739636	     -0.64903715	     -1.30323665	      0.73459763	      0.30617963	     31.91744976	     -1.98695995	     -5.32353191	    -76.07579687	     -6.18347951	    -13.70478297	      0.00000000	      9.52086281	      4.07260830	     -3.88586363	    -22.07409350	     10.72143888	    -11.45256241	      0.00000000	    -14.06470828	     -3.27397905	      7.37941538
      0.01333333	      4.42129820	      0.11955375	      0.30595412	     -1.29582542	      0.73550171	      0.30518086	     32.12042157	     -2.16582749	     -6.06306391	    -74.81918320	     -5.55677303	    -14.55855053	      0.00000000	      8.29837508	      4.15682243	     -2.65497165	    -21.45581250	     11.39491284	    -11.13885207	      0.00000000	    -14.34039010	     -2.99940542	      6.43054577
      0.02000000	      4.49140944	      0.09957750	      0.92967560	     -1.28873549	      0.73598975	      0.30454783	     32.59336909	     -2.24051400	     -6.38367230	    -73.52754261	     -5.21325644	    -15.02316877	      0.00000000	      7.46140981	      4.20180972	     -2.12273595	    -21.17876393	     11.79862892	    -10.93695726	      0.00000000	    -14.47745684	     -2.88266833	      5.88792056
      0.02666667	      4.55051205	      0.12949951	      1.47240154	     -1.28161306	      0.73634792	      0.30399137	     33.01574168	     -2.33876009	     -6.60845512	    -72.10105767	     -4.81060847	    -15.45441043	      0.00000000	      6.62106946	      4.27479809	     -1.72085363	    -20.88229462	     12.23469424	    -10.75051828	      0.00000000	    -14.59214119	     -2.82490904	      5.58074726
      0.03333333	      4.64303912	      0.14797050	      2.03900571	     -1.27444868	      0.73669438	      0.30344203	     33.28599021	     -2.45601053	     -6.88767534	    -70.47043561	     -4.45669207	    -15.90469637	      0.00000000	      5.74119802	      4.31637101	     -1.31017192	    -20.58820706	     12.69082426	    -10.49697079	      0.00000000	    -14.74303068	     -2.75906552	      5.20064433
      0.04000000	      4.73195195	      0.18101021	      2.61948970	     -1.26727573	      0.73694621	      0.30286620	     33.46008756	     -2.61134406	     -7.17955916	    -68.65822384	     -4.17704850	    -16.35109404	      0.00000000	      4.89032963	      4.34903182	     -0.96345202	    -20.33558890	     13.15714585	    -10.20133922	      0.00000000	    -14.88430757	     -2.69254783	      4.80318925
      0.04666667	      4.81582092	      0.21771832	      3.19122989	     -1.26012650	      0.73711119	      0.30232048	     33.55085506	     -2.77139822	     -7.47926180	    -66.66950946	     -3.93624975	    -16.81848154	      0.00000000	      4.04877910	      4.36677230	     -0.61570139	    -20.09438247	     13.65707601	     -9.84339243	      0.00000000	    -15.02800446	     -2.63713657	      4.39690797
      0.05333333	      4.85556214	      0.28397481	      3.71456026	     -1.25302948	      0.73709625	      0.30183537	     33.62077133	     -2.93242039	     -7.70354838	    -64.52888625	     -3.67553594	    -17.23093242	      0.00000000	      3.26447837	      4.40759560	     -0.28557485	    -19.85759036	     14.15185600	     -9.52405424	      0.00000000	    -15.13351279	     -2.63386375	      4.08867325
      0.06000000	      4.87020017	      0.37436400	      4.21407908	     -1.24595824	      0.73700066	      0.30137841	     33.63378400	     -3.10539976	     -7.90413617	    -62.21943040	     -3.44363275	    -17.56828453	      0.00000000	      2.50730945	      4.45822157	      0.01048458	    -19.62278585	     14.62666093	     -9.21415798	      0.00000000	    -15.21220290	     -2.64872464	      3.80296187
      0.06666667	      4.86169629	      0.47998207	      4.68492599	     -1.23889402	      0.73677720	      0.30090986	     33.58936271	     -3.29368904	     -8.08471608	    -59.75166768	     -3.20904926	    -17.82964707	      0.00000000	      1.76893181	      4.51870280	      0.30690535	    -19.38434447	     15.09292998	     -8.91570834	      0.00000000	    -15.26797156	     -2.67784289	      3.54269898
      0.07333333	      4.83132640	      0.60645812	      5.11379835	     -1.23190910	      0.73645607	      0.30047655	     33.49363377	     -3.49529599	     -8.25791990	    -57.11948692	     -2.97727983	    -17.98352859	      0.00000000	      1.06646522	      4.59495174	      0.58056387	    -19.16198853	     15.54245802	     -8.62664409	      0.00000000	    -15.31774851	     -2.73487525	      3.30379166
